<svg xmlns="http://www.w3.org/2000/svg" xmlns:xlink="http://www.w3.org/1999/xlink" width="500" zoomAndPan="magnify" viewBox="0 0 375 374.999991" height="500" preserveAspectRatio="xMidYMid meet" version="1.0"><defs><g/><clipPath id="id1"><path d="M 37.5 5.523438 L 210 5.523438 L 210 213 L 37.5 213 Z M 37.5 5.523438 " clip-rule="nonzero"/></clipPath><clipPath id="id2"><path d="M 71 248 L 121 248 L 121 280.773438 L 71 280.773438 Z M 71 248 " clip-rule="nonzero"/></clipPath></defs><rect x="-37.5" width="450" fill="#ffffff" y="-37.499999" height="449.999989" fill-opacity="1"/><rect x="-37.5" width="450" fill="#ffffff" y="-37.499999" height="449.999989" fill-opacity="1"/><rect x="-37.5" width="450" fill="#ffffff" y="-37.499999" height="449.999989" fill-opacity="1"/><rect x="-37.5" width="450" fill="#ffffff" y="-37.499999" height="449.999989" fill-opacity="1"/><g clip-path="url(#id1)"><path fill="#4cc282" d="M 126.78125 209.953125 L 39.273438 209.953125 L 40.757812 211.441406 L 40.757812 15.332031 C 40.757812 12.6875 40.898438 10.046875 40.757812 7.40625 C 40.757812 7.292969 40.757812 7.171875 40.757812 7.0625 L 39.273438 8.519531 L 201.058594 8.519531 C 203.230469 8.519531 205.460938 8.660156 207.65625 8.519531 L 207.941406 8.519531 L 206.457031 7.035156 L 206.457031 74.878906 C 206.457031 78.011719 206.320312 81.179688 206.457031 84.304688 L 206.457031 84.445312 C 206.457031 86.359375 209.425781 86.359375 209.425781 84.445312 L 209.425781 16.601562 C 209.425781 13.46875 209.566406 10.296875 209.425781 7.167969 L 209.425781 7.035156 C 209.425781 6.835938 209.390625 6.640625 209.3125 6.457031 C 209.238281 6.269531 209.128906 6.105469 208.984375 5.964844 C 208.84375 5.820312 208.679688 5.710938 208.496094 5.636719 C 208.308594 5.558594 208.117188 5.519531 207.914062 5.523438 L 46.136719 5.523438 C 43.945312 5.523438 41.730469 5.523438 39.558594 5.523438 L 39.273438 5.523438 C 39.074219 5.523438 38.882812 5.5625 38.699219 5.640625 C 38.515625 5.714844 38.351562 5.824219 38.210938 5.96875 C 38.070312 6.109375 37.960938 6.273438 37.882812 6.457031 C 37.808594 6.640625 37.769531 6.835938 37.769531 7.035156 L 37.769531 203.144531 C 37.769531 205.785156 37.722656 208.429688 37.769531 211.070312 C 37.769531 211.183594 37.769531 211.300781 37.769531 211.414062 C 37.769531 211.617188 37.804688 211.808594 37.878906 211.996094 C 37.957031 212.179688 38.066406 212.34375 38.207031 212.488281 C 38.347656 212.632812 38.511719 212.742188 38.695312 212.816406 C 38.878906 212.894531 39.074219 212.933594 39.273438 212.933594 L 126.78125 212.933594 C 128.695312 212.933594 128.695312 209.960938 126.78125 209.960938 Z M 126.78125 209.953125 " fill-opacity="1" fill-rule="nonzero"/></g><path fill="#4cc282" d="M 68.675781 56.523438 L 183.933594 56.523438 C 185.847656 56.523438 185.847656 53.550781 183.933594 53.550781 L 68.675781 53.550781 C 66.761719 53.550781 66.761719 56.523438 68.675781 56.523438 Z M 68.675781 56.523438 " fill-opacity="1" fill-rule="nonzero"/><path fill="#4cc282" d="M 67.894531 97.5625 L 146.03125 97.5625 C 147.941406 97.5625 147.945312 94.589844 146.03125 94.589844 L 67.894531 94.589844 C 65.988281 94.589844 65.980469 97.5625 67.894531 97.5625 Z M 67.894531 97.5625 " fill-opacity="1" fill-rule="nonzero"/><path fill="#4cc282" d="M 129.757812 134.644531 C 121.71875 134.265625 113.695312 134.484375 105.691406 135.304688 C 102.640625 135.625 99.046875 136.265625 97.421875 139.222656 C 97.085938 139.871094 96.855469 140.554688 96.738281 141.273438 C 96.621094 141.992188 96.621094 142.714844 96.734375 143.433594 C 96.847656 144.15625 97.070312 144.839844 97.402344 145.488281 C 97.734375 146.136719 98.164062 146.71875 98.683594 147.230469 C 99.25 147.726562 99.878906 148.121094 100.570312 148.417969 C 101.265625 148.710938 101.988281 148.890625 102.738281 148.953125 C 103.488281 149.015625 104.230469 148.960938 104.960938 148.789062 C 105.695312 148.613281 106.382812 148.332031 107.023438 147.9375 C 107.671875 147.515625 108.238281 147.007812 108.726562 146.414062 C 109.214844 145.816406 109.601562 145.160156 109.886719 144.445312 C 110.171875 143.726562 110.339844 142.984375 110.394531 142.214844 C 110.449219 141.445312 110.386719 140.6875 110.203125 139.9375 C 108.734375 133.066406 100.542969 133 95.027344 133.265625 C 85.992188 133.707031 76.945312 133.628906 67.914062 134.097656 C 66.007812 134.195312 66.003906 137.167969 67.914062 137.070312 C 74.929688 136.707031 81.960938 136.667969 88.980469 136.46875 C 92.148438 136.375 95.324219 136.113281 98.492188 136.117188 C 100.8125 136.117188 103.433594 136.3125 105.378906 137.730469 C 105.832031 138.054688 106.214844 138.445312 106.53125 138.898438 C 106.851562 139.351562 107.085938 139.847656 107.238281 140.378906 C 107.390625 140.914062 107.449219 141.457031 107.417969 142.011719 C 107.382812 142.5625 107.261719 143.097656 107.050781 143.609375 C 106.828125 144.078125 106.53125 144.488281 106.15625 144.847656 C 105.785156 145.203125 105.359375 145.480469 104.882812 145.683594 C 104.410156 145.882812 103.914062 145.992188 103.398438 146.011719 C 102.878906 146.03125 102.378906 145.957031 101.890625 145.789062 C 101.433594 145.601562 101.03125 145.335938 100.679688 144.988281 C 100.332031 144.636719 100.0625 144.238281 99.875 143.78125 C 99.683594 143.324219 99.589844 142.851562 99.589844 142.359375 C 99.59375 141.863281 99.6875 141.390625 99.875 140.933594 C 100.847656 138.648438 104.066406 138.425781 106.179688 138.214844 C 114.023438 137.4375 121.882812 137.230469 129.757812 137.597656 C 131.671875 137.683594 131.667969 134.710938 129.757812 134.625 Z M 129.757812 134.644531 " fill-opacity="1" fill-rule="nonzero"/><path fill="#4cc282" d="M 258.644531 86.460938 C 254.117188 79.820312 248.6875 74.027344 242.351562 69.085938 L 242.550781 70.917969 C 248.339844 61.773438 255.445312 53.804688 263.863281 47.011719 C 267.921875 43.707031 272.445312 40.40625 277.644531 39.300781 C 278.679688 39.074219 279.726562 38.984375 280.785156 39.035156 C 281.84375 39.082031 282.878906 39.269531 283.886719 39.59375 C 284.898438 39.914062 285.847656 40.363281 286.738281 40.9375 C 287.628906 41.515625 288.429688 42.195312 289.140625 42.980469 C 290.453125 44.484375 291.496094 46.15625 292.265625 47.996094 C 293.03125 49.835938 293.488281 51.753906 293.636719 53.742188 C 294.019531 58.367188 292.671875 62.851562 290.578125 66.953125 C 288.175781 71.628906 284.871094 75.773438 281.484375 79.773438 C 277.527344 84.457031 273.535156 89.109375 269.558594 93.777344 L 221.34375 150.355469 L 196.972656 178.949219 C 189.320312 187.925781 181.75 196.976562 173.996094 205.859375 C 161.585938 220.074219 147.195312 235.074219 128.273438 239.839844 C 126.070312 240.382812 123.839844 240.769531 121.582031 240.996094 L 123.066406 242.480469 C 122.460938 220.304688 134.046875 200.410156 147.253906 183.46875 C 154.511719 174.167969 162.433594 165.414062 170.257812 156.589844 L 196.816406 126.660156 L 226.867188 92.761719 C 228.128906 91.335938 226.039062 89.226562 224.769531 90.660156 L 170.65625 151.742188 C 162.734375 160.710938 154.613281 169.574219 147.121094 178.957031 C 140.058594 187.734375 133.460938 196.988281 128.523438 207.113281 C 123.125 218.125 119.773438 230.140625 120.109375 242.480469 C 120.109375 242.675781 120.148438 242.867188 120.222656 243.046875 C 120.296875 243.230469 120.402344 243.390625 120.539062 243.53125 C 120.675781 243.671875 120.835938 243.78125 121.015625 243.859375 C 121.199219 243.9375 121.386719 243.976562 121.582031 243.980469 C 141.972656 241.8125 158.042969 227.789062 171.347656 213.238281 C 179.265625 204.597656 186.691406 195.523438 194.289062 186.609375 L 219.195312 157.394531 L 269.261719 98.605469 L 281.714844 84 C 285.273438 79.820312 288.875 75.621094 291.722656 70.902344 C 294.359375 66.53125 296.414062 61.5625 296.644531 56.410156 C 296.738281 54.25 296.527344 52.117188 296.011719 50.015625 C 295.5 47.914062 294.699219 45.925781 293.617188 44.050781 C 291.515625 40.484375 288.222656 37.558594 284.171875 36.488281 C 278.773438 35.054688 273.261719 37.035156 268.667969 39.84375 C 263.890625 42.894531 259.492188 46.417969 255.472656 50.414062 C 251.5 54.226562 247.867188 58.335938 244.570312 62.746094 C 242.953125 64.886719 241.433594 67.097656 239.996094 69.351562 C 239.828125 69.640625 239.765625 69.953125 239.808594 70.289062 C 239.851562 70.621094 239.992188 70.90625 240.226562 71.148438 C 246.386719 75.914062 251.679688 81.503906 256.097656 87.917969 C 257.171875 89.484375 259.746094 88 258.660156 86.417969 Z M 258.644531 86.460938 " fill-opacity="1" fill-rule="nonzero"/><path fill="#4cc282" d="M 140.976562 201.15625 L 160.605469 218.449219 C 162.03125 219.710938 164.140625 217.617188 162.703125 216.347656 L 143.078125 199.0625 C 141.644531 197.808594 139.539062 199.902344 140.976562 201.164062 Z M 140.976562 201.15625 " fill-opacity="1" fill-rule="nonzero"/><g clip-path="url(#id2)"><path fill="#4cc282" d="M 118.816406 248.214844 C 116.402344 248.875 113.945312 249.851562 112.164062 251.667969 C 111.300781 252.527344 110.679688 253.539062 110.296875 254.695312 C 109.914062 255.855469 109.8125 257.035156 109.992188 258.242188 C 110.179688 259.386719 110.667969 260.382812 111.453125 261.234375 C 112.046875 261.859375 113.242188 262.363281 113.433594 263.214844 C 113.433594 263.347656 113.433594 263.414062 113.273438 263.636719 C 113.082031 263.859375 112.863281 264.050781 112.613281 264.207031 C 111.839844 264.671875 111 264.933594 110.097656 264.992188 C 107.460938 265.144531 104.714844 264.507812 102.179688 264.035156 C 99.394531 263.511719 96.609375 262.949219 93.785156 262.671875 C 88.683594 262.164062 83.511719 262.949219 79.265625 265.976562 C 78.207031 266.722656 77.234375 267.566406 76.34375 268.503906 C 75.453125 269.445312 74.664062 270.464844 73.980469 271.5625 C 73.292969 272.660156 72.722656 273.816406 72.265625 275.027344 C 71.808594 276.242188 71.476562 277.484375 71.269531 278.765625 C 71.222656 278.953125 71.210938 279.144531 71.238281 279.339844 C 71.265625 279.53125 71.328125 279.710938 71.425781 279.882812 C 71.519531 280.050781 71.644531 280.199219 71.796875 280.320312 C 71.949219 280.441406 72.117188 280.53125 72.304688 280.585938 C 72.496094 280.636719 72.6875 280.652344 72.882812 280.625 C 73.078125 280.601562 73.257812 280.539062 73.429688 280.445312 C 73.601562 280.347656 73.746094 280.21875 73.871094 280.066406 C 73.992188 279.910156 74.078125 279.738281 74.132812 279.550781 C 74.445312 277.421875 75.140625 275.429688 76.226562 273.570312 C 77.308594 271.714844 78.703125 270.125 80.402344 268.808594 C 84.242188 265.835938 88.902344 265.15625 93.632812 265.613281 C 96.339844 265.871094 99.003906 266.4375 101.679688 266.933594 C 104.359375 267.542969 107.074219 267.882812 109.820312 267.949219 C 111.769531 267.949219 114.046875 267.246094 115.390625 265.757812 C 116.941406 264.046875 116.644531 261.730469 114.929688 260.234375 C 114.085938 259.503906 113.226562 258.988281 112.949219 257.832031 C 112.746094 256.820312 112.890625 255.859375 113.378906 254.953125 C 114.566406 252.660156 117.28125 251.648438 119.617188 251.035156 C 121.464844 250.53125 120.679688 247.664062 118.832031 248.167969 Z M 118.816406 248.214844 " fill-opacity="1" fill-rule="nonzero"/></g><path fill="#4cc282" d="M 250.171875 61.054688 C 258.164062 66.171875 264.882812 72.621094 270.332031 80.394531 C 271.875 82.613281 273.296875 84.910156 274.589844 87.285156 C 275.507812 88.960938 278.074219 87.464844 277.15625 85.777344 C 272.417969 77.109375 266.210938 69.664062 258.539062 63.445312 C 256.339844 61.664062 254.050781 60.011719 251.667969 58.484375 C 250.058594 57.453125 248.566406 60.023438 250.171875 61.054688 Z M 250.171875 61.054688 " fill-opacity="1" fill-rule="nonzero"/><g fill="#000000" fill-opacity="1"><g transform="translate(207.855094, 242.171329)"><g><path d="M 29.78125 -31.9375 L 8.570312 -29.589844 L 8.570312 -41.398438 L 3.554688 -44.320312 L 2.414062 -42.480469 L 6.160156 -40.257812 L 6.160156 -9.777344 L 34.351562 -12.699219 L 34.351562 -14.859375 L 30.476562 -14.414062 C 31.683594 -15.621094 32.191406 -17.398438 32.191406 -19.429688 L 32.191406 -45.144531 L 27.175781 -48.066406 L 26.035156 -46.226562 L 29.78125 -44.003906 Z M 8.570312 -27.238281 L 29.78125 -29.589844 L 29.78125 -19.367188 C 29.78125 -17.460938 29.019531 -15.492188 27.8125 -14.160156 L 8.570312 -12.191406 Z M 40.890625 -53.78125 L 46.734375 -50.734375 L 46.734375 8 L 49.210938 7.746094 L 49.210938 -51.8125 L 41.84375 -55.621094 Z M 40.890625 -53.78125 "/></g></g></g><g fill="#000000" fill-opacity="1"><g transform="translate(267.535412, 242.171329)"><g><path d="M 2.984375 -46.796875 L 6.730469 -44.574219 L 6.730469 -23.113281 L 34.414062 -26.035156 L 34.414062 -28.191406 L 30.542969 -27.746094 C 31.75 -28.953125 32.257812 -30.730469 32.257812 -32.765625 L 32.257812 -48.828125 L 8.253906 -46.226562 L 4.128906 -48.636719 Z M 9.144531 -44.128906 L 29.84375 -46.414062 L 29.84375 -32.699219 C 29.84375 -30.796875 29.082031 -28.828125 27.875 -27.492188 L 9.144531 -25.527344 Z M 13.652344 -14.097656 L 46.542969 -17.84375 L 46.542969 -7.9375 L 13.015625 -4.0625 L 13.015625 -1.777344 L 16.574219 -2.160156 L 16.574219 10.222656 L 51.433594 8 L 51.433594 5.777344 L 19.050781 7.808594 L 19.050781 -2.476562 L 49.019531 -5.90625 L 49.019531 -20.507812 L 13.652344 -16.382812 Z M 40.890625 -53.78125 L 46.734375 -50.734375 L 46.734375 -24.253906 L 49.210938 -24.507812 L 49.210938 -51.8125 L 41.84375 -55.621094 Z M 40.890625 -53.78125 "/></g></g></g><g fill="#000000" fill-opacity="1"><g transform="translate(207.855094, 318.382028)"><g><path d="M 2.667969 -36.445312 C 6.160156 -27.175781 12.507812 -23.558594 19.683594 -23.558594 C 28.890625 -23.558594 34.480469 -29.082031 34.480469 -36.699219 C 34.480469 -44.636719 27.8125 -49.398438 19.304688 -49.398438 C 12.0625 -49.398438 6.351562 -44.957031 2.667969 -36.445312 Z M 5.207031 -36.511719 C 8.0625 -43.050781 12.953125 -47.242188 19.304688 -47.242188 C 26.351562 -47.242188 32.066406 -42.796875 32.066406 -36.828125 C 32.066406 -30.160156 27.238281 -25.714844 19.683594 -25.714844 C 13.398438 -25.714844 7.683594 -29.398438 5.207031 -36.511719 Z M 13.015625 -1.90625 L 16.574219 -2.285156 L 16.574219 10.222656 L 51.433594 8 L 51.433594 5.777344 L 19.050781 7.808594 L 19.050781 -2.601562 L 49.019531 -6.03125 L 49.019531 -20.507812 L 13.652344 -16.382812 L 13.652344 -14.097656 L 46.542969 -17.84375 L 46.542969 -8.0625 L 13.015625 -4.191406 Z M 40.890625 -53.78125 L 46.734375 -50.734375 L 46.734375 -24.574219 L 49.210938 -24.828125 L 49.210938 -51.8125 L 41.84375 -55.621094 Z M 40.890625 -53.78125 "/></g></g></g><g fill="#000000" fill-opacity="1"><g transform="translate(268.17029, 318.382028)"><g><path d="M 40.890625 -53.78125 L 46.734375 -50.734375 L 46.734375 8 L 49.210938 7.746094 L 49.210938 -51.8125 L 41.84375 -55.621094 Z M 3.492188 -42.921875 L 8.445312 -40.003906 L 30.289062 -42.351562 C 27.558594 -28.382812 17.335938 -15.492188 4.253906 -5.90625 L 5.652344 -4.191406 C 19.875 -14.730469 29.527344 -26.796875 32.953125 -43.113281 L 31.175781 -44.765625 L 8.761719 -42.351562 L 4.636719 -44.765625 Z M 3.492188 -42.921875 "/></g></g></g><g fill="#222222" fill-opacity="1"><g transform="translate(167.331908, 365.588641)"><g/></g></g><g fill="#222222" fill-opacity="1"><g transform="translate(183.427824, 365.588641)"><g><path d="M 5.53125 -0.3125 C 3.726562 -0.34375 2.347656 -0.679688 1.390625 -1.328125 L 0.984375 -1.609375 L 1.546875 -2.484375 L 1.984375 -2.1875 C 2.890625 -1.625 4.070312 -1.34375 5.53125 -1.34375 C 6.144531 -1.34375 6.671875 -1.476562 7.109375 -1.75 C 7.785156 -2.164062 8.125 -2.867188 8.125 -3.859375 C 8.125 -5.035156 7.332031 -5.921875 5.75 -6.515625 C 5.6875 -6.515625 5.597656 -6.535156 5.484375 -6.578125 C 4.253906 -6.972656 3.367188 -7.378906 2.828125 -7.796875 C 2.015625 -8.410156 1.609375 -9.238281 1.609375 -10.28125 C 1.609375 -11.1875 1.945312 -11.910156 2.625 -12.453125 C 3.300781 -13.003906 4.238281 -13.28125 5.4375 -13.28125 C 6.519531 -13.28125 7.46875 -13.054688 8.28125 -12.609375 L 8.734375 -12.328125 L 8.265625 -11.4375 C 7.390625 -11.96875 6.445312 -12.234375 5.4375 -12.234375 C 4.71875 -12.234375 4.128906 -12.128906 3.671875 -11.921875 C 2.992188 -11.578125 2.65625 -11.03125 2.65625 -10.28125 C 2.65625 -9.5625 2.941406 -8.992188 3.515625 -8.578125 C 3.960938 -8.273438 4.734375 -7.929688 5.828125 -7.546875 C 5.960938 -7.484375 6.066406 -7.453125 6.140625 -7.453125 C 8.191406 -6.734375 9.21875 -5.535156 9.21875 -3.859375 C 9.21875 -2.597656 8.804688 -1.65625 7.984375 -1.03125 C 7.328125 -0.550781 6.507812 -0.3125 5.53125 -0.3125 Z M 5.53125 -0.3125 "/></g></g></g><g fill="#222222" fill-opacity="1"><g transform="translate(197.688367, 365.588641)"><g><path d="M 5.421875 -0.5 C 4.035156 -0.5 2.925781 -0.96875 2.09375 -1.90625 C 1.3125 -2.78125 0.921875 -3.894531 0.921875 -5.25 C 0.921875 -6.769531 1.367188 -7.945312 2.265625 -8.78125 C 3.015625 -9.46875 3.972656 -9.8125 5.140625 -9.8125 C 6.429688 -9.8125 7.410156 -9.335938 8.078125 -8.390625 C 8.660156 -7.566406 8.953125 -6.546875 8.953125 -5.328125 L 8.953125 -4.8125 L 1.96875 -4.8125 C 1.96875 -3.738281 2.351562 -2.898438 3.125 -2.296875 C 3.800781 -1.773438 4.566406 -1.515625 5.421875 -1.515625 C 5.847656 -1.515625 6.273438 -1.570312 6.703125 -1.6875 C 6.941406 -1.75 7.34375 -1.921875 7.90625 -2.203125 L 8.375 -1.28125 L 7.671875 -0.9375 C 6.878906 -0.644531 6.128906 -0.5 5.421875 -0.5 Z M 7.921875 -5.84375 C 7.910156 -6.0625 7.875 -6.316406 7.8125 -6.609375 C 7.664062 -7.398438 7.304688 -7.984375 6.734375 -8.359375 C 6.253906 -8.679688 5.675781 -8.84375 5 -8.84375 C 4.144531 -8.84375 3.441406 -8.554688 2.890625 -7.984375 C 2.378906 -7.460938 2.082031 -6.75 2 -5.84375 Z M 7.921875 -5.84375 "/></g></g></g><g fill="#222222" fill-opacity="1"><g transform="translate(211.693999, 365.588641)"><g><path d="M 5 -0.5 C 2.28125 -0.5 0.921875 -2.09375 0.921875 -5.28125 C 0.921875 -6.664062 1.269531 -7.773438 1.96875 -8.609375 C 2.664062 -9.441406 3.664062 -9.859375 4.96875 -9.859375 C 5.53125 -9.859375 6.175781 -9.726562 6.90625 -9.46875 C 7.488281 -9.238281 7.78125 -9.097656 7.78125 -9.046875 L 7.578125 -8.65625 C 7.429688 -8.394531 7.34375 -8.238281 7.3125 -8.1875 C 6.59375 -8.613281 5.847656 -8.828125 5.078125 -8.828125 C 4.035156 -8.828125 3.257812 -8.507812 2.75 -7.875 C 2.425781 -7.5 2.226562 -7.066406 2.15625 -6.578125 C 2.082031 -6.085938 2.046875 -5.644531 2.046875 -5.25 C 2.046875 -3.863281 2.359375 -2.878906 2.984375 -2.296875 C 3.523438 -1.785156 4.304688 -1.53125 5.328125 -1.53125 C 5.742188 -1.5625 6.128906 -1.640625 6.484375 -1.765625 C 6.804688 -1.910156 7.054688 -2.054688 7.234375 -2.203125 L 7.765625 -1.390625 L 7.46875 -1.1875 C 7.164062 -1.007812 6.800781 -0.851562 6.375 -0.71875 C 5.957031 -0.582031 5.5 -0.507812 5 -0.5 Z M 5 -0.5 "/></g></g></g><g fill="#222222" fill-opacity="1"><g transform="translate(224.527023, 365.588641)"><g><path d="M 2.71875 -0.5 L 1.59375 -0.5 L 1.59375 -9.578125 L 2.71875 -9.578125 L 2.71875 -8.53125 C 3.5625 -9.375 4.351562 -9.796875 5.09375 -9.796875 C 5.8125 -9.796875 6.421875 -9.613281 6.921875 -9.25 C 6.835938 -9.132812 6.71875 -8.976562 6.5625 -8.78125 C 6.414062 -8.59375 6.304688 -8.445312 6.234375 -8.34375 C 6.117188 -8.394531 5.96875 -8.460938 5.78125 -8.546875 C 5.601562 -8.628906 5.394531 -8.671875 5.15625 -8.671875 C 4.476562 -8.671875 3.898438 -8.34375 3.421875 -7.6875 C 3.023438 -7.144531 2.800781 -6.554688 2.75 -5.921875 C 2.726562 -5.691406 2.71875 -3.882812 2.71875 -0.5 Z M 2.71875 -0.5 "/></g></g></g><g fill="#222222" fill-opacity="1"><g transform="translate(236.442351, 365.588641)"><g><path d="M 5.421875 -0.5 C 4.035156 -0.5 2.925781 -0.96875 2.09375 -1.90625 C 1.3125 -2.78125 0.921875 -3.894531 0.921875 -5.25 C 0.921875 -6.769531 1.367188 -7.945312 2.265625 -8.78125 C 3.015625 -9.46875 3.972656 -9.8125 5.140625 -9.8125 C 6.429688 -9.8125 7.410156 -9.335938 8.078125 -8.390625 C 8.660156 -7.566406 8.953125 -6.546875 8.953125 -5.328125 L 8.953125 -4.8125 L 1.96875 -4.8125 C 1.96875 -3.738281 2.351562 -2.898438 3.125 -2.296875 C 3.800781 -1.773438 4.566406 -1.515625 5.421875 -1.515625 C 5.847656 -1.515625 6.273438 -1.570312 6.703125 -1.6875 C 6.941406 -1.75 7.34375 -1.921875 7.90625 -2.203125 L 8.375 -1.28125 L 7.671875 -0.9375 C 6.878906 -0.644531 6.128906 -0.5 5.421875 -0.5 Z M 7.921875 -5.84375 C 7.910156 -6.0625 7.875 -6.316406 7.8125 -6.609375 C 7.664062 -7.398438 7.304688 -7.984375 6.734375 -8.359375 C 6.253906 -8.679688 5.675781 -8.84375 5 -8.84375 C 4.144531 -8.84375 3.441406 -8.554688 2.890625 -7.984375 C 2.378906 -7.460938 2.082031 -6.75 2 -5.84375 Z M 7.921875 -5.84375 "/></g></g></g><g fill="#222222" fill-opacity="1"><g transform="translate(250.447983, 365.588641)"><g><path d="M 6.265625 -0.5 C 5.347656 -0.5 4.675781 -0.535156 4.25 -0.609375 C 3.820312 -0.691406 3.46875 -0.910156 3.1875 -1.265625 C 2.914062 -1.628906 2.738281 -2.09375 2.65625 -2.65625 C 2.570312 -3.226562 2.53125 -3.953125 2.53125 -4.828125 L 2.53125 -8.75 L 0.921875 -8.75 L 0.921875 -9.734375 L 2.53125 -9.734375 L 2.53125 -12.28125 L 3.65625 -12.28125 L 3.65625 -9.734375 L 5.859375 -9.734375 L 5.859375 -8.75 L 3.65625 -8.75 C 3.65625 -5.46875 3.671875 -3.617188 3.703125 -3.203125 C 3.765625 -2.617188 3.882812 -2.203125 4.0625 -1.953125 C 4.1875 -1.828125 4.363281 -1.738281 4.59375 -1.6875 C 4.832031 -1.632812 5.390625 -1.609375 6.265625 -1.609375 Z M 6.265625 -0.5 "/></g></g></g><g fill="#222222" fill-opacity="1"><g transform="translate(261.76851, 365.588641)"><g/></g></g><g fill="#222222" fill-opacity="1"><g transform="translate(270.488931, 365.588641)"><g><path d="M 4.71875 -0.5 L 1.09375 -0.5 L 1.09375 -13.09375 L 4.71875 -13.09375 C 6.613281 -13.09375 8.09375 -12.519531 9.15625 -11.375 C 10.226562 -10.238281 10.765625 -8.710938 10.765625 -6.796875 C 10.765625 -4.960938 10.285156 -3.484375 9.328125 -2.359375 C 8.234375 -1.117188 6.695312 -0.5 4.71875 -0.5 Z M 4.71875 -1.609375 C 6.613281 -1.609375 7.96875 -2.234375 8.78125 -3.484375 C 9.34375 -4.347656 9.625 -5.453125 9.625 -6.796875 C 9.625 -8.140625 9.34375 -9.238281 8.78125 -10.09375 C 7.96875 -11.34375 6.613281 -11.96875 4.71875 -11.96875 L 2.203125 -11.96875 L 2.203125 -1.609375 Z M 4.71875 -1.609375 "/></g></g></g><g fill="#222222" fill-opacity="1"><g transform="translate(286.295953, 365.588641)"><g><path d="M 3.046875 -0.5 L 1.921875 -0.5 L 1.921875 -9.734375 L 3.046875 -9.734375 Z M 2.484375 -11.703125 C 2.222656 -11.703125 2.007812 -11.78125 1.84375 -11.9375 C 1.675781 -12.101562 1.59375 -12.316406 1.59375 -12.578125 C 1.59375 -12.835938 1.675781 -13.050781 1.84375 -13.21875 C 2.007812 -13.382812 2.222656 -13.46875 2.484375 -13.46875 C 2.742188 -13.46875 2.953125 -13.382812 3.109375 -13.21875 C 3.273438 -13.050781 3.359375 -12.835938 3.359375 -12.578125 C 3.359375 -12.316406 3.273438 -12.101562 3.109375 -11.9375 C 2.953125 -11.78125 2.742188 -11.703125 2.484375 -11.703125 Z M 2.484375 -11.703125 "/></g></g></g><g fill="#222222" fill-opacity="1"><g transform="translate(295.390246, 365.588641)"><g><path d="M 4.625 -0.5 C 3.363281 -0.5 2.410156 -0.972656 1.765625 -1.921875 C 1.203125 -2.742188 0.921875 -3.84375 0.921875 -5.21875 C 0.921875 -6.53125 1.210938 -7.613281 1.796875 -8.46875 C 2.441406 -9.425781 3.414062 -9.90625 4.71875 -9.90625 C 5.769531 -9.90625 6.710938 -9.472656 7.546875 -8.609375 L 7.546875 -9.8125 L 8.6875 -9.8125 L 8.6875 -0.609375 L 7.546875 -0.609375 L 7.546875 -1.8125 C 6.671875 -0.9375 5.695312 -0.5 4.625 -0.5 Z M 4.71875 -1.609375 C 6.59375 -1.609375 7.53125 -2.835938 7.53125 -5.296875 C 7.53125 -6.367188 7.300781 -7.222656 6.84375 -7.859375 C 6.382812 -8.492188 5.675781 -8.8125 4.71875 -8.8125 C 2.96875 -8.8125 2.09375 -7.597656 2.09375 -5.171875 C 2.09375 -4.140625 2.296875 -3.285156 2.703125 -2.609375 C 3.117188 -1.941406 3.789062 -1.609375 4.71875 -1.609375 Z M 4.71875 -1.609375 "/></g></g></g><g fill="#222222" fill-opacity="1"><g transform="translate(309.293909, 365.588641)"><g><path d="M 2.71875 -0.5 L 1.59375 -0.5 L 1.59375 -9.578125 L 2.71875 -9.578125 L 2.71875 -8.53125 C 3.5625 -9.375 4.351562 -9.796875 5.09375 -9.796875 C 5.8125 -9.796875 6.421875 -9.613281 6.921875 -9.25 C 6.835938 -9.132812 6.71875 -8.976562 6.5625 -8.78125 C 6.414062 -8.59375 6.304688 -8.445312 6.234375 -8.34375 C 6.117188 -8.394531 5.96875 -8.460938 5.78125 -8.546875 C 5.601562 -8.628906 5.394531 -8.671875 5.15625 -8.671875 C 4.476562 -8.671875 3.898438 -8.34375 3.421875 -7.6875 C 3.023438 -7.144531 2.800781 -6.554688 2.75 -5.921875 C 2.726562 -5.691406 2.71875 -3.882812 2.71875 -0.5 Z M 2.71875 -0.5 "/></g></g></g><g fill="#222222" fill-opacity="1"><g transform="translate(321.209237, 365.588641)"><g><path d="M 1.59375 3.328125 L 1.015625 3.328125 L 1.015625 2.203125 C 2.179688 2.203125 2.910156 2.132812 3.203125 2 C 3.398438 1.84375 3.609375 1.609375 3.828125 1.296875 C 4.054688 0.992188 4.316406 0.410156 4.609375 -0.453125 C 4.609375 -0.617188 4.582031 -0.722656 4.53125 -0.765625 L 0.828125 -9.90625 L 2.078125 -9.90625 L 5.1875 -2.15625 L 7.8125 -9.90625 L 9.03125 -9.90625 C 6.800781 -3.351562 5.597656 0.144531 5.421875 0.59375 C 5.015625 1.726562 4.472656 2.5 3.796875 2.90625 C 3.304688 3.1875 2.570312 3.328125 1.59375 3.328125 Z M 1.59375 3.328125 "/></g></g></g></svg>