<?xml version="1.0" encoding="utf-8"?>
<!-- Generator: Adobe Illustrator 25.0.1, SVG Export Plug-In . SVG Version: 6.00 Build 0)  -->
<svg version="1.1" id="레이어_1" xmlns="http://www.w3.org/2000/svg" xmlns:xlink="http://www.w3.org/1999/xlink" x="0px"
	 y="0px" viewBox="0 0 1920 1080" style="enable-background:new 0 0 1920 1080;" xml:space="preserve">
<style type="text/css">
	.st0{fill:none;stroke:#C6972C;stroke-width:2;stroke-miterlimit:10;}
	.st1{fill:#99AAB6;}
	.st2{fill:#FDF2E4;}
	.st3{fill:#FBD0BD;}
	.st4{fill:#2C100E;}
	.st5{fill:#8597A1;}
	.st6{fill:#F4B89C;}
	.st7{fill:#E9A488;}
	.st8{fill:#F6CAB9;}
	.st9{fill:#EC1B23;}
	.st10{fill:#321C19;}
	.st11{fill:#D5593B;}
	.st12{fill:#EFB4A4;}
	.st13{fill:#E8A99A;}
	.st14{fill:#241411;}
	.st15{fill:#F1BFAC;}
	.st16{fill:#E9A797;}
	.st17{fill:#C24E39;}
</style>
<path class="st0" d="M88,26.73"/>
<g>
	<g>
		<g>
			<path class="st1" d="M1019.12,672.39l5.57-7.99l17.44,1.21l-5.33-10.9l3.39-6.54l16.26-1.13l12.81,5.01l8.24,19.86l6.54-8.24
				l7.75,9.93l12.11-10.17l7.99,10.9l10.17-8.24l5.57,9.45l4.84-9.69l7.27,6.78l6.06-6.3l7.34,9.45l7.68-7.99l9.46,10.9l5.33-8.96
				l15,8.72l9.93-5.81l10.17,6.3l4.4-10.17l8.2,11.14l7.9-9.2l7,8.72l7.39-9.69l8.86,8.72l4.47-13.56l7.18,13.56l11.16-23.74
				l5.35,23.74l6.27-42.63l19.69,19.01c-4.33-14.68-8.4-28.36-11.44-39.96c-12.26-46.84-71.44-69.34-71.86-73.64
				c-0.96-9.82-6.27-19.87-9.21-24.47c-2.95-4.61-18.41-11.87-18.41-11.87l-94.28,6.01l-11.09,26.45c0,0-61.61,36.04-77.76,64.98
				c-10.07,18.03-16.77,41.98-21.18,67.68l7.59-5.12L1019.12,672.39z"/>
			<path class="st2" d="M1016.78,760.97l14.21-7.75l23.42,10.82l11.63-10.98l15.5,14.86l13.73-16.63l9.53,16.63l8.88-12.44
				l5.65,12.11l6.62-15.02l14.86,17.44l13.24-18.09l13.56,19.54l8.01-14.21l7.98,7.27l8.86-6.46l7.94,9.37l8.63-8.08l3.64,9.53
				l10.5-10.82l8.06,16.15l14.71-16.96l8.53,14.86l10.68-22.12l10.98,14.21l3.39-27.62l12.6,16.47l5.65-32.14l4.36,16.96l4.95-17.12
				l4.42,12.11l3.91-13.57l11,1.35c-4.95-21.9-11.64-44.88-17.82-65.83l-19.69-19.01l-6.27,42.63l-5.35-23.74l-11.16,23.74
				l-7.18-13.56l-4.47,13.56l-8.86-8.72l-7.39,9.69l-7-8.72l-7.9,9.2l-8.2-11.14l-4.4,10.17l-10.17-6.3l-9.93,5.81l-15-8.72
				l-5.33,8.96l-9.46-10.9l-7.68,7.99l-7.34-9.45l-6.06,6.3l-7.27-6.78l-4.84,9.69l-5.57-9.45l-10.17,8.24l-7.99-10.9l-12.11,10.17
				l-7.75-9.93l-6.54,8.24l-8.24-19.86l-12.81-5.01l-16.26,1.13l-3.39,6.54l5.33,10.9l-17.44-1.21l-5.57,7.99l-18.17-7.51
				l-7.59,5.12c-4.64,27.07-6.72,56.09-7.48,82.2l15.88-8.99L1016.78,760.97z"/>
			<path class="st1" d="M1333.82,778.71c0.59-16.38-2.58-36.7-7.4-58.06l-11-1.35l-3.91,13.57l-4.42-12.11l-4.95,17.12l-4.36-16.96
				l-5.65,32.14l-12.6-16.47l-3.39,27.62l-10.98-14.21l-10.68,22.12l-8.53-14.86l-14.71,16.96l-8.06-16.15l-10.5,10.82l-3.64-9.53
				l-8.63,8.08l-7.94-9.37l-8.86,6.46l-7.98-7.27l-8.01,14.21l-13.56-19.54l-13.24,18.09l-14.86-17.44l-6.62,15.02l-5.65-12.11
				l-8.88,12.44l-9.53-16.63l-13.73,16.63l-15.5-14.86l-11.63,10.98l-23.42-10.82l-14.21,7.75l-15.02-17.76l-15.88,8.99
				c-1.37,46.94,1.53,84.51,1.53,84.51l346.47,0C1333.89,836.71,1332.24,822.19,1333.82,778.71z"/>
		</g>
		<path class="st3" d="M1262.33,419.16c0,5.28-7.11,28.01-17.44,37.06c-9.55,8.37-19.47,6.67-19.47,6.67
			c-6.69,13.43-26.43,23.34-28.01,34.02c-1.62,10.93,6.66,23.64,0.07,29.77c-17.22,16-78.97,7.51-83.82,1.7
			c-3.58-4.3,2.9-14.63-2.42-15.79c-21.27-4.62-39.89-17.97-51.95-35.99c-9.07-13.55-5.04-24.83-5.04-41.94
			c0-21.58-11.99-62.14-0.89-78c12.33-17.62,45.48-22.69,69.03-22.69C1167.12,333.97,1262.33,373.61,1262.33,419.16z"/>
		<path class="st4" d="M1272.52,319.36c1.38,7.26,3.28,57.56-12.63,89.47c-2.15,4.3-2.91-11.95-16.47-12.27
			c-11.67-0.28-23.22,9.08-28.58,15.83c-5.4,6.79-6.57,12.27-10.66,12.27c-2.71,0-5.44-15.14-13.89-24.87
			c-10.12-11.66-25.35-20.42-26.32-23.74c-0.72-2.45-10.73-0.3-12.27-2.26c-1-1.27-7.25,1.32-8.88,0.97
			c-2.26-0.48-3.9-2.07-5.65-3.55c-1.7-1.44-8.55-0.35-10.33-1.61c-1.15-0.81-4.66,2.08-5.81,1.29c-2.61-1.78-5.24-2.52-7.91-4.04
			c-1.77-1.01-5.34,2.21-7.11,1.29c-2.26-1.18-8.04,1.09-10.17,0c-1.81-0.92-2.3-2.91-4.04-3.71c-2.79-1.29,0.15-23.83-4.76-23.47
			c-5.1,0.37-2.4,15.92-4.13,22.34c-0.49,1.83-3.15,0.67-3.71,0.81c-1.15,0.28-1.29,2.44-2.42,2.91c-3.56,1.45-3.5-2.44-7.43-1.45
			c-0.97,0.24-2.11,2.24-3.07,2.42c-2.71,0.51-4.93-0.42-7.59,0c-1.94,0.31-3.75-1.76-5.49-1.29c-5.61,1.51-9.42,5.11-10.5,4.52
			c-8.39-4.61-4.7-28-1.31-39.14c11.84-38.91,73.18-88.76,133.57-88.76C1235.33,243.3,1266.02,285.28,1272.52,319.36z"/>
		<g>
			<path class="st5" d="M1064.13,593.95c2.48,15.31,1.2,30.77,0.89,46.18c-0.33,16.06-1.03,32.1-1.74,48.15
				c-0.7,16-1.14,32.01-1.78,48.01c-0.64,15.85-1.53,31.68-2.02,47.54c-0.29,9.09-0.14,18.17-0.19,27.27
				c-0.05,8.41-0.05,17.31-1.45,25.62h2.39c1.87-11.11,1.53-22.29,1.49-33.52c-0.05-14.05,0.46-28.07,1.1-42.11
				c0.41-8.94,0.79-17.87,1.16-26.81c0.96-23.03,1.81-46.07,2.7-69.11c0.47-12.29,0.73-24.58,1.16-36.87
				c0.4-11.68,0.5-23.41-1.37-34.98C1066.22,591.77,1063.88,592.42,1064.13,593.95L1064.13,593.95z"/>
		</g>
		<g>
			<path class="st5" d="M1094.65,599.12c-6.93,17.53-14.56,35.03-28.27,48.4c-1.12,1.09,0.59,2.8,1.71,1.71
				c14.02-13.67,21.81-31.55,28.9-49.47C1097.56,598.31,1095.22,597.68,1094.65,599.12L1094.65,599.12z"/>
		</g>
		<g>
			<path class="st5" d="M1240.31,571.23c16.3,20.04,31.31,42.01,36.02,67.89c2.47,13.56,1.26,27.45,0.2,41.08
				c-1.12,14.38-2.49,28.77-2.07,43.21c0.32,10.99,1.97,21.43,6.14,31.63c4.05,9.88,8.62,19.63,6.88,30.6
				c-0.78,4.88-3.94,8.48-6.94,12.18c-2.68,3.3-4.72,6.78-5.59,10.97c-1.88,9.05-0.53,18.84,0.53,27.91h2.42
				c-0.65-5.55-1.2-11.12-1.31-16.72c-0.12-5.62,0.09-11.55,2.91-16.56c2.6-4.61,6.82-8.02,9.03-12.9
				c2.36-5.2,2.12-11.51,1.15-17.01c-1.05-5.96-3.56-11.56-5.89-17.1c-2.43-5.77-4.49-11.53-5.52-17.72
				c-2.35-14.13-1.53-28.69-0.52-42.9c0.86-12.14,2.11-24.27,2.41-36.45c0.28-11.37-1.2-22.57-4.58-33.43
				c-6.58-21.12-19.74-39.43-33.55-56.4C1241.04,568.3,1239.33,570.03,1240.31,571.23L1240.31,571.23z"/>
		</g>
		<g>
			<path class="st5" d="M1285.74,604.77c0.57,10.29,1.45,20.55,1.08,30.86c-0.39,10.56-2.07,21.92-8.66,30.54
				c-0.95,1.24,1.16,2.45,2.09,1.22c6.43-8.42,8.27-19.34,8.89-29.66c0.67-11-0.37-21.99-0.97-32.96
				C1288.07,603.22,1285.65,603.21,1285.74,604.77L1285.74,604.77z"/>
		</g>
		<g>
			<path class="st5" d="M1180.77,559.6c8.21,1.38,16.81-0.14,24.56-2.98c7.66-2.8,15.47-7.48,19.55-14.8
				c0.76-1.37-1.33-2.59-2.09-1.22c-3.79,6.8-11.02,11-18.1,13.69c-7.24,2.75-15.56,4.28-23.27,2.98
				C1179.88,557,1179.23,559.34,1180.77,559.6L1180.77,559.6z"/>
		</g>
		<g>
			<path class="st5" d="M1092.84,537.73c5.56,10.31,15.95,16.41,27.37,18c1.53,0.21,2.19-2.12,0.65-2.34
				c-10.84-1.51-20.64-7.07-25.92-16.88C1094.19,535.13,1092.1,536.36,1092.84,537.73L1092.84,537.73z"/>
		</g>
		<g>
			<path class="st6" d="M1103.1,510.36c10.32,4.82,21.51,1,32.11-0.51c12.83-1.82,24.67-7.23,37-10.93
				c1.49-0.45,0.86-2.79-0.64-2.34c-11.49,3.44-22.53,8.37-34.38,10.52c-5.13,0.93-12.24,2.91-17.39,3.74
				C1113.97,511.79,1103.1,510.36,1103.1,510.36z"/>
		</g>
		<g>
			<path class="st7" d="M1255.46,417.76c-0.11-5.62-3.22-10.36-8.44-12.51c-4.94-2.04-10.31-0.15-13.39,4.02
				c-3.66,4.94-1.88,10.78-0.37,16.15c1.19,4.23,4.83,13.22-1.14,15.41c-1.45,0.53-0.83,2.87,0.64,2.34
				c10.52-3.85,1.59-19.25,1.07-26.55c-0.39-5.36,4.16-9.91,9.44-9.73c5.73,0.19,9.65,5.5,9.76,10.89
				C1253.07,419.32,1255.49,419.32,1255.46,417.76L1255.46,417.76z"/>
		</g>
		<g>
			<path class="st7" d="M1240.48,414.69c0.94,4.95,1.27,9.97,5.16,13.62c1.14,1.07,2.85-0.64,1.71-1.71
				c-3.52-3.31-3.68-8.08-4.53-12.55C1242.52,412.52,1240.19,413.17,1240.48,414.69L1240.48,414.69z"/>
		</g>
	</g>
	<g>
		<rect x="713.1" y="490.1" class="st8" width="72.35" height="87.53"/>
		<path class="st9" d="M770.89,289.22c0,14.05-54.85,30.28-80.67,30.28c-9.68,0-16.28,7.34-23.74,4.6
			c-12.44-4.57-23.01-21.26-23.01-30.04c0-14.05,3.25-20.11,29.07-20.11c7.87,0,16.92,0.56,25.7,1.74c0.58,0.08-1.27-2.79,4.09-5.86
			c2.23-1.28,2.15-4.03,5-5.57c2.38-1.29,12.64,1.02,14.37-1.45c15.99-22.85,34.31-20.64,35.61-20.41
			C774.52,245.46,770.89,280.61,770.89,289.22z"/>
		<path class="st10" d="M709.44,385.07c0,18.77,30.82,83.67-0.57,101.35c-26.65,15.02-16.59,20.71-26.4,20.11
			c-2.79-0.17-8.03-7.28-11.51-8.24c-6.59-1.82-6.96-0.51-13.1,0.46c-9.21,1.45-17.54-27.06-18.19-32.55
			c-1.05-8.9,6.47-16.61,5.49-26.16c-1.49-14.6-7.11-34.26-7.11-54.97c0-37.97,15.98-68.76,35.69-68.76
			C693.46,316.32,709.44,347.1,709.44,385.07z"/>
		<g>
			<path class="st11" d="M879.91,735.69c-16.13-13.61-12.23-46.89-7.75-74.93c1.27-7.95,6.73-19.08,7.37-33.62
				c0.75-16.96-4.34-52.87-7.35-72.29c-7.31-9.72-13.53-13.1-30.71-17.32l-29.69-6.39l-54.61,13.6l-58.14-26.1
				c0,0-22.78,18.82-30.61,26.11c8.56,13.91,19.02,35.17,22.43,60.14c0.44,3.22,16.06-15.94,16.25-12.61
				c0.2,3.52,29.68,26.73,29.55,30.36c-0.2,5.68-4.52,13.57-13.08,18.57c0,0-4.69,23.95-11.3,33.27
				c-14.09,19.86-34.27,35.12-40.45,39.55c2.53-0.36,4.01,0.6,3.85,3.89c-0.32,6.78-0.7,11.61,1.67,18.29
				c0,0-15.79,10.2-35.49,39.04c-16.58,24.28-24.22,62.5-24.22,62.5l339.14-1.34l-41.02-67.14c0,0,0.03,0.01,0.07,0.02
				C910.45,763.36,899.53,752.24,879.91,735.69z"/>
		</g>
		<path class="st12" d="M1000.87,699.67c-14.05-15.18-5.33-38.11-5.33-38.11c-1.78-2.75-16.05,15.71-18.41,15.18
			c-17.28-3.88-19.82-10.82-29.07-13.4c-4.24-1.19-6.41,2.51-10.01-0.97c-1.87-1.81-1.22-6.35-3.07-8.24
			c-4.73-4.85-11.41-3.53-15.99-8.72c-13.92-15.79-15.44-42.73-26.48-59.43c-9.84-14.87-15.33-24.48-20.33-31.13
			c3.02,19.42,8.11,55.33,7.35,72.29c-0.65,14.53-6.1,25.66-7.37,33.61c-4.48,28.04-8.38,61.33,7.75,74.93
			c19.62,16.56,30.54,27.68,35.92,33.62c1.5,0.51,29.16,11.93,39.18,9.75c23.46-5.1,28.94-37.44,50.7-55.32
			c13.04-10.71,18.4-16.77,18.41-22.28C1024.12,701.45,1006.96,706.25,1000.87,699.67z"/>
		<path class="st13" d="M759.35,541.8c-1.89,0-4.3-0.4-6.99-1.09l-17.27,41.47c9.2,2.62,19.45,2.77,30.91,2.77
			c37.82,0,64.27-15.67,64.27-37.79C830.28,528.96,797.17,541.8,759.35,541.8z"/>
		<path class="st12" d="M712.28,674.48c6.61-9.32,11.3-33.27,11.3-33.27c8.56-5.01,12.88-12.9,13.08-18.57
			c0.13-3.63-29.35-26.84-29.55-30.36c-0.19-3.33-15.81,15.83-16.25,12.61c-3.42-24.97-13.87-46.23-22.43-60.14
			c-0.14,0.13-0.27,0.25-0.4,0.38c-11.03,10.4-29.71,17.44-40.7,42.96c-7.54,17.51-38.98,45.91-40.37,56.85
			c-1.94,15.18-0.54,26.02,3.88,37.47c7.88,20.43,24.55,29.07,41.99,41.99c9.81,7.27,30.44-9.14,39.01-10.35
			C678.01,709.6,698.19,694.34,712.28,674.48z"/>
		<path class="st12" d="M824.66,579.96c-6.5,0.95-18.43-10.81-25.03-15.4c-6.54-4.55-22.29-22.77-22.29-22.77l36.98-19.86
			c0,0,2.95,8.22,10.5,11.95c4.37,2.16,9.23-2.66,11.63-0.32C843.07,540.02,836.73,578.19,824.66,579.96z"/>
		<path class="st3" d="M851.47,451.53c-3.29,17.41-3.33,27.13-10.65,41.08c-5.78,11.02-15.62,19.13-24.87,27.78
			c-12.07,11.28-22.94,18.73-38.11,18.73c-12.6,0-34.79-12.79-45.22-19.38c-15.37-9.7-24.98-21.3-29.89-37.55
			c-2.75-9.08-0.9,4.8-13.07,2.02c-8.4-1.92-18.86-16.63-20.92-26.24c-1.54-7.19-2.03-19.02,1.5-25.68
			c1.36-2.57,2.29-2.78,4.97-4.12c6.54-3.27,22.61,13.89,22.65,11.63c0.85-50.87,51.97-92.54,78.2-92.54
			C817.6,347.27,875.7,323.21,851.47,451.53z"/>
		<path class="st14" d="M855.03,355.67c0-46.82-40.62-91.41-87.53-91.41c-46.91,0-102.71,31.03-100.15,109.17
			c1.32,40.35,29.02,69.07,30.5,66.37c3.11-5.65,8.15-14.68,14.41-23.09c8.33-11.19,20.99-20.99,20.99-20.99
			C780.18,395.72,855.03,402.49,855.03,355.67z"/>
		<path class="st10" d="M865.34,381.33c0,14.52-1.7,32.22-34.88,27.13c-2.56-0.39-4.15-7.79-7.02-7.51
			c-1.98,0.19-8.84,14.71-10.9,14.78c-2.13,0.07-3.84-7.75-6.06-7.75c-5.24,0-10.66,3.82-15.5,3.39
			c-3.54-0.31-10.55,2.34-13.57,0.97c-2.41-1.1-2.41-7.48-5.09-7.99c-3.39-0.66-10.61,5.22-13.81,4.6
			c-3.65-0.71-7.57-3.54-11.14-4.6c-3.57-1.06-6.78-0.36-9.69-2.18c-5.35-3.34-7.27-9.79-7.27-15.02
			c0-18.53,41.41-41.67,76.06-41.67C841.12,345.48,865.34,362.8,865.34,381.33z"/>
		<g>
			<path class="st12" d="M717.77,522.75c-4.68-5.98-4.67-20.15-4.67-20.15c-11.28,4.01-19.29,14.7-19.29,29.55
				c0,11.91,10.8,31.75,25.25,42.12c4.26,3.05,8.79,5.1,13.61,6.47l17.27-41.47C738.52,536.33,721.98,528.12,717.77,522.75z"/>
		</g>
		<path class="st15" d="M771.29,583.96c0,7.44-19.76,17.95-27.37,25.68c-6.21,6.3-5.44,16.71-12.11,16.71
			c-14.85,0-24.47-19.43-24.47-32.94c0-6.12,7.14-15.63,11.39-28.34c5.13-15.37,10.35-28.41,15.26-34.88
			c1.48-1.95,25.25-22.01,29.39-23.09c3.71-0.97,9.59-0.57,10.46,1.29c0.35,0.74,4.97,2.54-7.75,10.54
			c-6.06,3.81-12.45,9-12.23,10.05c0.67,3.23,13.29-5.36,16.71-6.54c3.51-1.21,8.77-1.25,10.82-1.13c2.66,0.16,15.26,5.98-3.71,9.45
			c-6.84,1.25-18.39,10.81-18.41,12.03c-0.01,0.62,8.19-5.31,17.76-9.2c9.57-3.9,20.5-5.76,21.59-3.28
			c1.14,2.59,1.01,3.73-0.69,6.25c-2.09,3.09-8.55,4.58-12.46,6.48c-3.75,1.82-11.89,5.49-13.2,8.72c0,0,9.11-4.68,11.39-5.41
			c5.25-1.7,17.56-4.33,16.15,0.08c-0.89,2.77-1.78,6.14-10.66,7.35C774.66,555.73,771.29,582.58,771.29,583.96z"/>
		<path class="st15" d="M1034.54,691c-7.51,7.63-14.57,16.72-24.47,16.72c-9.9,0-16.55-10.32-17.92-22.89
			c-1.04-9.55-1.11-18.29,2.98-22.89c3.26-3.66,9.01-11.87,13.73-17.44c5.33-6.3,19.98-41.75,23.74-45.06
			c2.83-2.49,22.92-27.53,25.68-26.65c1.34,0.43,5.57,2.3,4.12,9.21c-1.84,8.72-12.54,10.74-17.2,24.47
			c-1.26,3.7-2.46,7.63-3.61,11.67c-0.92,3.24,31.29-16.46,34.7-16.92c2.99-0.4,13.84-5.26,17.24-1.78c1.7,1.74,1.1,4.48-0.6,6.66
			c-1.04,1.33-2.2,2.72-3.45,4.17c-1.32,1.53,1.71-0.28,3.93-0.42c3.95-0.24,5.78,5.6,3.88,7.51c-7.11,7.13-18.39,14.84-28.22,22.88
			c-2.62,2.14-1.75,6.09,1.58,6.31c3.63,0.24,14.3-4.05,16.96-4.36c6.3-0.74,12.89-1.12,15.38,1.82c1.24,1.45,2.12,4.43-0.32,5.81
			c-1.79,1.02-20.2,7.27-22.23,8.33c-5.68,2.97-11.31,14.89-16.21,19.29C1046.29,693.55,1037.47,688.03,1034.54,691z"/>
		<path class="st16" d="M650.32,625.39c0,0,12.31-9.57,16.96-12.11c5.16-2.83,24.06-8.07,24.06-8.07l-0.98-4.28
			c0,0-19.38,5.92-25.03,9.12c-4.31,2.44-15.62,12.19-15.62,12.19s-14.4,7.55-18.45,11.23c-1.98,1.8-6.78,8.08-6.78,8.08
			L650.32,625.39z"/>
		<g>
			<path class="st16" d="M632.61,625.17c8.94-3.99,13.53-5.56,21.36-2.57c-6.05-3.39-8.57-3.4-16.27-2.14
				c-16.77,2.76-28.34,17.27-25.84,32.4c0.14,0.83,0.32,1.64,0.53,2.44C611.64,643.4,619.47,631.04,632.61,625.17z"/>
		</g>
		<g>
			<path class="st16" d="M694.21,608.89c-1.22,6.45,0.34,13.7,4.86,19.74c4.52,6.04,11.03,9.58,17.57,10.23
				c-5.47-2.3-10.81-6.43-15.06-12.11C697.33,621.07,694.87,614.78,694.21,608.89z"/>
		</g>
		<g>
			<path class="st16" d="M979.02,685.35c-1.45,6.74-0.05,14.68,4.43,21.71c4.48,7.03,11.09,11.65,17.81,13.18
				c-5.57-3.16-10.96-8.25-15.17-14.87C981.87,698.77,979.53,691.74,979.02,685.35z"/>
		</g>
		<path class="st16" d="M918.95,688.2c0,0,9.37-12.46,13.19-16.14c4.24-4.08,12.45-8.78,12.45-8.78s-2.4,0.72-4.07,0.53
			c-0.95-0.11-2.21-1.21-2.21-1.21s-4.28,2.28-8.89,6.85c-3.52,3.49-11.88,15.86-11.88,15.86s-6.75,14.17-9.69,18.78
			c-1.44,2.26-3.23,12.27-3.23,12.27L918.95,688.2z"/>
		<path class="st16" d="M915.4,658.98l4.88-12.32l-2.07-2.18l-4.77,11.96c0,0-3.72,15.25-5.66,20.37
			c-0.95,2.5-0.66,12.67-0.66,12.67L915.4,658.98z"/>
		<g>
			<path class="st6" d="M1027.34,634.27c2.48,2.17,5.54,3.16,8.77,3.58c1.55,0.2,1.53-2.22,0-2.42c-2.54-0.33-5.1-1.16-7.06-2.87
				C1027.88,631.53,1026.16,633.24,1027.34,634.27L1027.34,634.27z"/>
		</g>
		<g>
			<path class="st6" d="M1028.97,643.82c6.36-3.62,12.16-7.9,18.74-11.14c2.93-1.44,8.5-5.85,11.86-3.86
				c2.44,1.45,1.02,6.28-0.02,8.07c-1.62,2.78-4.64,4.78-7.12,6.71c-5.77,4.47-11.42,10.52-19.22,10.73c-1.56,0.04-1.56,2.46,0,2.42
				c8.54-0.23,14.6-6.52,20.93-11.44c4.82-3.74,11.82-9.55,8.34-16.57c-2.57-5.18-9.17-1.77-12.8,0.15
				c-3.16,1.67-6.43,3.15-9.51,4.97c-4.22,2.49-8.15,5.44-12.41,7.88C1026.39,642.51,1027.61,644.6,1028.97,643.82L1028.97,643.82z"
				/>
		</g>
		<g>
			<path class="st6" d="M1037.97,654.57c0.01,4.99-0.03,9.82-1.89,14.54c-0.58,1.45,1.77,2.08,2.34,0.64
				c1.94-4.9,1.99-9.98,1.98-15.18C1040.39,653.01,1037.96,653.01,1037.97,654.57L1037.97,654.57z"/>
		</g>
		<g>
			<path class="st6" d="M1046.45,652.83c3.49,1.44,5.58,5.84,6.26,9.33c0.3,1.53,2.64,0.88,2.34-0.64
				c-0.87-4.44-3.62-9.24-7.95-11.02C1045.65,649.9,1045.02,652.24,1046.45,652.83L1046.45,652.83z"/>
		</g>
		<g>
			<path class="st6" d="M1087.66,610.08c-9.51,5.04-18.38,11.12-27.29,17.12c-1.29,0.87-0.08,2.97,1.22,2.09
				c8.91-6,17.78-12.08,27.29-17.12C1090.26,611.44,1089.04,609.35,1087.66,610.08L1087.66,610.08z"/>
		</g>
		<g>
			<path class="st17" d="M688.03,741.68c1,16.66-12.06,29.25-22.22,40.75c-2.36,2.67-4.67,5.39-6.81,8.25
				c-3.04,4.06-5.21,8.78-6.97,13.52c-3.42,9.2-4.96,18.96-8.31,28.19c-0.17,0.48,2.67,0.18,2.94-0.55
				c3.34-9.23,4.99-18.96,8.31-28.19c3.22-8.96,8.64-15.99,14.88-23.01c9.97-11.21,22.13-23.57,21.16-39.76
				C690.99,740.41,687.99,740.91,688.03,741.68L688.03,741.68z"/>
		</g>
		<g>
			<path class="st17" d="M706.2,748.95c-1.95,13.42-5.5,26.45-9.37,39.42c-1.91,6.4-3.29,12.47-3.69,19.16
				c-0.43,7.13-0.34,14.27-1.47,21.35c-0.05,0.29,2.84,0.09,2.98-0.8c1.08-6.78,1.1-13.63,1.42-20.48
				c0.35-7.2,1.89-13.75,3.95-20.63c3.81-12.77,7.24-25.62,9.16-38.83C709.23,747.84,706.33,748.06,706.2,748.95L706.2,748.95z"/>
		</g>
		<g>
			<path class="st17" d="M714.19,752.58c2.59,19.5-9.27,39-2.18,58.13c0.4,1.08,3.36,0.2,2.98-0.8
				c-7.07-19.07,4.77-38.65,2.18-58.13C717.04,750.74,714.04,751.43,714.19,752.58L714.19,752.58z"/>
		</g>
		<g>
			<path class="st17" d="M729.45,754.03c0.77,13.44-0.72,26.89-0.54,40.34c0.17,13.02,1.9,26.54,9.36,37.56
				c0.47,0.69,3.36-0.25,2.79-1.09c-7.53-11.12-9-24.92-9.17-38.02c-0.17-13.2,1.3-26.4,0.55-39.59
				C732.4,752.48,729.4,753.05,729.45,754.03L729.45,754.03z"/>
		</g>
		<g>
			<path class="st17" d="M741.93,756.45c5.62,10.64,9.14,22.3,7.13,34.39c-0.23,1.39,2.81,0.95,3.01-0.28
				c2.07-12.47-1.61-24.41-7.4-35.37C744.11,754.12,741.24,755.15,741.93,756.45L741.93,756.45z"/>
		</g>
		<g>
			<path class="st17" d="M760.08,766.57c4.19,4.28,7.1,9.24,8.61,15.04c1.41,5.44,1.46,11.17,1.46,16.75c0,0.93,2.99,0.36,2.98-0.8
				c-0.01-5.84-0.16-11.71-1.63-17.4c-1.46-5.65-4.59-10.61-8.65-14.76C762.12,764.66,759.29,765.77,760.08,766.57L760.08,766.57z"
				/>
		</g>
		<g>
			<path class="st17" d="M770.06,760.49c13.75,6.1,17.2,22.01,20.18,35.28c2.75,12.22,5.34,27.59,17.31,34.32
				c1.19,0.67,3.78-0.93,2.29-1.77c-12.34-6.94-14.35-23.5-17.21-35.98c-3.05-13.32-7.3-27.91-20.87-33.94
				C770.46,757.83,768.31,759.71,770.06,760.49L770.06,760.49z"/>
		</g>
		<g>
			<path class="st17" d="M795.69,754.24c6.49,8.89,7.87,20.88,6.42,31.54c-0.17,1.28,2.85,0.76,2.99-0.33
				c1.49-11,0.03-23.25-6.66-32.41C797.81,752.14,794.93,753.18,795.69,754.24L795.69,754.24z"/>
		</g>
		<g>
			<path class="st17" d="M816.25,762.41c13.9,9.72,19.18,27.53,22.93,43.22c1.37,5.73,2.7,11.58,4.73,17.11
				c1.61,4.38,4.23,9.88,9.67,9.6c1.57-0.08,2.4-1.99,0.35-1.88c-2.33,0.12-3.98-2.37-5.02-4.11c-1.58-2.64-2.53-5.7-3.4-8.63
				c-1.7-5.72-2.96-11.58-4.45-17.36c-3.77-14.66-9.55-30.48-22.46-39.5C817.68,760.21,814.96,761.51,816.25,762.41L816.25,762.41z"
				/>
		</g>
		<g>
			<path class="st17" d="M846.45,764.93c8.32,12.54,15.25,25.95,19.49,40.44c2.57,8.77,3.95,21.95,14.21,25.15
				c0.69,0.21,3.34-0.89,2.45-1.17c-10.16-3.16-11.37-17.17-13.96-25.76c-4.27-14.12-11.06-27.2-19.2-39.46
				C848.94,763.38,846.2,764.56,846.45,764.93L846.45,764.93z"/>
		</g>
		<g>
			<path class="st17" d="M877.1,775.36c10.28,10.48,15.05,26.43,14.39,40.9c-0.07,1.52,2.96,1.06,3.02-0.25
				c0.68-14.82-4.13-31.2-14.67-41.95C878.91,773.12,876.08,774.33,877.1,775.36L877.1,775.36z"/>
		</g>
		<g>
			<path class="st17" d="M887.97,767.99c8.87,9.03,13,20.85,18.8,31.83c0.47,0.89,3.34-0.13,2.98-0.8
				c-5.85-11.08-10.04-23.01-18.99-32.12C890.12,766.24,887.32,767.33,887.97,767.99L887.97,767.99z"/>
		</g>
		<g>
			<path class="st17" d="M914.13,799.23c9.71,9.92,12.35,25.2,23.98,33.43c0.76,0.54,3.41-0.65,2.79-1.08
				c-11.61-8.21-14.27-23.51-23.98-33.43C916.3,797.51,913.51,798.6,914.13,799.23L914.13,799.23z"/>
		</g>
		<g>
			<path class="st17" d="M906.77,820.89c1.29,2.63,2.34,5.37,3.63,7.99c0.44,0.89,3.33-0.11,2.98-0.8
				c-1.29-2.63-2.34-5.37-3.63-7.99C909.31,819.2,906.42,820.2,906.77,820.89L906.77,820.89z"/>
		</g>
		<g>
			<path class="st17" d="M815.93,805.63c2.64,6.8,3.55,13.98,5.09,21.07c0.2,0.91,3.19,0.16,2.99-0.8
				c-1.54-7.09-2.45-14.27-5.09-21.07C818.55,803.89,815.61,804.8,815.93,805.63L815.93,805.63z"/>
		</g>
		<g>
			<path class="st7" d="M675.8,448.47c-0.52-2.92-0.36-6.22,1.88-8.41c2.48-2.42,7.03-0.85,9.32,1.01
				c5.02,4.07,3.18,12.35,1.48,17.57c-0.48,1.49,1.85,2.12,2.34,0.64c2.41-7.41,3.49-17.75-4.92-21.72
				c-3.39-1.6-7.49-1.6-10.27,1.11c-2.71,2.63-2.79,6.99-2.17,10.44C673.74,450.65,676.07,449.99,675.8,448.47L675.8,448.47z"/>
		</g>
		<g>
			<path class="st7" d="M682.18,455.73c-1.48,5.75-1.17,17.87,7.47,17.04c1.54-0.15,1.56-2.57,0-2.42
				c-6.69,0.64-6.22-9.73-5.13-13.97C684.91,454.86,682.57,454.22,682.18,455.73L682.18,455.73z"/>
		</g>
	</g>
</g>
</svg>
